<?xml version="1.0" standalone="no"?><!DOCTYPE svg PUBLIC "-//W3C//DTD SVG 1.1//EN" "http://www.w3.org/Graphics/SVG/1.1/DTD/svg11.dtd"><svg t="1608205474702" class="icon" viewBox="0 0 1024 1024" version="1.1" xmlns="http://www.w3.org/2000/svg" p-id="11403" xmlns:xlink="http://www.w3.org/1999/xlink" width="200" height="200"><defs><style type="text/css"></style></defs><path d="M977.454545 977.454545 884.363636 977.454545 884.363636 1024 1024 1024 1024 884.363636 977.454545 884.363636Z" p-id="11404" fill="#1296db"></path><path d="M1024 0 884.363636 0 884.363636 46.545455 977.454545 46.545455 977.454545 139.636364 1024 139.636364Z" p-id="11405" fill="#1296db"></path><path d="M0 1024 139.636364 1024 139.636364 977.454545 46.545455 977.454545 46.545455 884.363636 0 884.363636Z" p-id="11406" fill="#1296db"></path><path d="M93.090909 930.909091l837.818182 0L930.909091 93.090909 93.090909 93.090909 93.090909 930.909091zM139.636364 139.636364l744.727273 0 0 744.727273L139.636364 884.363636 139.636364 139.636364z" p-id="11407" fill="#1296db"></path><path d="M0 139.636364 46.545455 139.636364 46.545455 46.545455 139.636364 46.545455 139.636364 0 0 0Z" p-id="11408" fill="#1296db"></path></svg>