<?xml version="1.0" standalone="no"?><!DOCTYPE svg PUBLIC "-//W3C//DTD SVG 1.1//EN" "http://www.w3.org/Graphics/SVG/1.1/DTD/svg11.dtd"><svg t="1607822526037" class="icon" viewBox="0 0 1024 1024" version="1.1" xmlns="http://www.w3.org/2000/svg" p-id="883" xmlns:xlink="http://www.w3.org/1999/xlink" width="64" height="64"><defs><style type="text/css"></style></defs><path d="M405.333333 554.666667a64 64 0 0 1 64 64v256a64 64 0 0 1-64 64H149.333333a64 64 0 0 1-64-64V618.666667a64 64 0 0 1 64-64h256z m469.333334 0a64 64 0 0 1 64 64v256a64 64 0 0 1-64 64H618.666667a64 64 0 0 1-64-64V618.666667a64 64 0 0 1 64-64h256z m-490.666667 64H170.666667a21.333333 21.333333 0 0 0-21.184 18.837333L149.333333 640v213.333333a21.333333 21.333333 0 0 0 18.837334 21.184L170.666667 874.666667h213.333333a21.333333 21.333333 0 0 0 21.184-18.837334L405.333333 853.333333V640a21.333333 21.333333 0 0 0-21.333333-21.333333z m469.333333 0H640a21.333333 21.333333 0 0 0-21.184 18.837333L618.666667 640v213.333333a21.333333 21.333333 0 0 0 18.837333 21.184L640 874.666667h213.333333a21.333333 21.333333 0 0 0 21.184-18.837334L874.666667 853.333333V640a21.333333 21.333333 0 0 0-21.333334-21.333333zM405.333333 85.333333a64 64 0 0 1 64 64v256a64 64 0 0 1-64 64H149.333333a64 64 0 0 1-64-64V149.333333a64 64 0 0 1 64-64h256z m386.581334 26.069334l120.682666 120.682666a64 64 0 0 1 0 90.496l-120.682666 120.682667a64 64 0 0 1-90.496 0l-120.682667-120.682667a64 64 0 0 1 0-90.496l120.682667-120.682666a64 64 0 0 1 90.496 0zM384 149.333333H170.666667a21.333333 21.333333 0 0 0-21.184 18.837334L149.333333 170.666667v213.333333a21.333333 21.333333 0 0 0 18.837334 21.184L170.666667 405.333333h213.333333a21.333333 21.333333 0 0 0 21.184-18.837333L405.333333 384V170.666667a21.333333 21.333333 0 0 0-21.333333-21.333334z m349.589333 20.629334l-2.005333 1.770666-90.517333 90.517334a21.333333 21.333333 0 0 0-1.770667 28.16l1.770667 2.005333 90.517333 90.517333a21.333333 21.333333 0 0 0 28.16 1.770667l2.005333-1.770667 90.517334-90.517333a21.333333 21.333333 0 0 0 1.770666-28.16l-1.770666-2.005333-90.517334-90.517334a21.333333 21.333333 0 0 0-28.16-1.770666z" fill="#bfbfbf" p-id="884"></path></svg>