<?xml version="1.0" standalone="no"?><!DOCTYPE svg PUBLIC "-//W3C//DTD SVG 1.1//EN" "http://www.w3.org/Graphics/SVG/1.1/DTD/svg11.dtd"><svg t="1607822723868" class="icon" viewBox="0 0 1024 1024" version="1.1" xmlns="http://www.w3.org/2000/svg" p-id="3829" xmlns:xlink="http://www.w3.org/1999/xlink" width="64" height="64"><defs><style type="text/css"></style></defs><path d="M179.19999969 643.20000031c-12.79999969-12.79999969-28.8-19.2-44.79999938-19.2H32v22.39999969c0 25.60000031 3.19999969 51.19999969 3.19999969 73.60000031h227.20000031l-83.20000031-76.8zM992 624.00000031h-99.19999969c-16.00000031 0-31.99999969 6.40000031-44.80000031 19.2l-86.4 76.8h227.20000031c3.19999969-22.39999969 3.19999969-44.80000031 3.19999969-73.60000031v-22.39999969zM406.4 720.00000031h211.2l96-96H310.4z" fill="#bfbfbf" p-id="3830"></path><path d="M704 742.4c-3.19999969-6.40000031 0-12.79999969 3.19999969-19.2l115.2-105.6c16.00000031-19.2 41.59999969-28.8 67.2-28.8h96c-9.6-54.40000031-31.99999969-89.59999969-76.8-112.00000031v-6.39999938c-16.00000031-38.4-99.19999969-227.20000031-124.8-249.6-9.6-9.6-25.60000031-16.00000031-48-22.40000062 19.2-12.79999969 31.99999969-31.99999969 32.00000062-54.39999938 0-35.20000031-28.8-64.00000031-64.00000031-64.00000031H320c-35.20000031 0-64.00000031 28.8-64.00000031 64.00000031 0 22.39999969 12.79999969 41.59999969 32.00000062 54.39999938-22.39999969 6.40000031-38.4 12.79999969-48 22.40000062-25.60000031 22.39999969-108.79999969 214.39999969-124.8 249.6v6.39999938c-41.59999969 25.60000031-67.2 60.79999969-76.8 112.00000031h96c25.60000031 0 51.19999969 9.6 67.2 28.8l115.2 102.40000031c3.19999969 9.6 3.19999969 16.00000031 3.19999969 22.39999969s-9.6 9.6-16.00000031 9.6H38.40000031c3.19999969 31.99999969 9.6 51.19999969 9.6 51.19999969 3.19999969 6.40000031 9.6 12.79999969 15.99999938 12.80000062v70.39999969c0 31.99999969 25.60000031 57.6 57.6 57.6h112.00000031c31.99999969 0 57.6-25.60000031 57.6-57.6v-57.6l41.59999969 16.00000031H697.59999969l41.60000062-16.00000031v57.6c0 31.99999969 25.60000031 57.6 57.6 57.6h111.99999938c31.99999969 0 57.6-25.60000031 57.6-57.6v-70.39999969c6.40000031 0 12.79999969-6.40000031 16.00000031-12.80000062 0 0 6.40000031-22.39999969 9.6-51.19999969h-265.60000031c-12.79999969 0-19.2-3.19999969-22.39999969-9.6zM576.00000031 128c0-9.6 6.40000031-16.00000031 15.99999938-16.00000031s16.00000031 6.40000031 16.00000031 16.00000031v31.99999969c0 9.6-6.40000031 16.00000031-16.00000031 16.00000031S576.00000031 169.59999969 576.00000031 159.99999969V128z m-160.00000031 0c0-9.6 6.40000031-16.00000031 16.00000031-16.00000031s16.00000031 6.40000031 15.99999938 16.00000031v31.99999969c0 9.6-6.40000031 16.00000031-15.99999938 16.00000031S416 169.59999969 416 159.99999969V128zM153.60000031 460.80000031C198.39999969 358.4 246.39999969 255.99999969 259.20000031 246.39999969c22.39999969-19.2 102.40000031-38.4 230.4-38.4h41.59999969c131.20000031 0 211.2 19.2 230.4 38.4 12.79999969 12.79999969 64.00000031 115.2 105.6 217.60000031-64.00000031-19.2-182.4-28.8-358.39999969-28.8-172.8-3.19999969-291.19999969 6.40000031-355.2 25.60000031z m483.19999969 288c-3.19999969 3.19999969-6.40000031 3.19999969-12.79999969 3.19999969h-224.00000062c-3.19999969 0-9.6-3.19999969-12.79999969-3.19999969l-127.99999969-128.00000062c-3.19999969-6.40000031-3.19999969-12.79999969-3.20000062-19.2 3.19999969-6.40000031 9.6-9.6 16.00000031-9.6h480c6.40000031 0 12.79999969 3.19999969 16.00000031 9.6 3.19999969 6.40000031 0 12.79999969-3.20000062 16.00000031l-127.99999969 131.20000031z" fill="#bfbfbf" p-id="3831"></path></svg>