<?xml version="1.0" standalone="no"?><!DOCTYPE svg PUBLIC "-//W3C//DTD SVG 1.1//EN" "http://www.w3.org/Graphics/SVG/1.1/DTD/svg11.dtd"><svg t="1607822809450" class="icon" viewBox="0 0 1024 1024" version="1.1" xmlns="http://www.w3.org/2000/svg" p-id="5112" xmlns:xlink="http://www.w3.org/1999/xlink" width="64" height="64"><defs><style type="text/css"></style></defs><path d="M513.59 301.79c64.7 0 117.34-52.63 117.34-117.33S578.29 67.13 513.59 67.13s-117.33 52.64-117.33 117.34 52.63 117.32 117.33 117.32z m0-161.87c24.56 0 44.55 19.99 44.55 44.55S538.15 229 513.59 229s-44.53-19.97-44.53-44.53 19.97-44.55 44.53-44.55zM237.77 156.59c-64.7 0-117.34 52.63-117.34 117.33s52.64 117.34 117.34 117.34S355.1 338.61 355.1 273.91s-52.63-117.32-117.33-117.32z m0 161.87c-24.56 0-44.55-19.99-44.55-44.55s19.99-44.53 44.55-44.53 44.53 19.97 44.53 44.53-19.97 44.55-44.53 44.55zM906.76 273.91c0-64.7-52.64-117.33-117.34-117.33s-117.34 52.63-117.34 117.33 52.64 117.34 117.34 117.34 117.34-52.64 117.34-117.34z m-161.88 0c0-24.56 19.99-44.53 44.55-44.53s44.55 19.97 44.55 44.53-19.99 44.55-44.55 44.55-44.55-19.99-44.55-44.55zM605.96 330.45H414.68c-45.97 0-83.36 37.39-83.36 83.36v245.11c0 40.97 29.71 75.14 68.73 82.07v178.13c0 20.11 16.29 36.4 36.4 36.4s36.4-16.29 36.4-36.4V716.76c0-26.06-21.21-47.27-47.27-47.27h-10.89c-5.83 0-10.57-4.74-10.57-10.57V413.81c0-5.83 4.74-10.57 10.57-10.57h191.28c5.83 0 10.57 4.74 10.57 10.57v245.11c0 5.83-4.74 10.57-10.57 10.57h-9.16c-25.76 0-46.7 20.95-46.7 46.7v204.54c0 20.11 16.29 36.4 36.4 36.4s36.4-16.29 36.4-36.4V740.55c37.88-7.84 66.43-41.47 66.43-81.63V413.81c-0.03-45.97-37.42-83.36-83.38-83.36zM841.37 418.15h-71.51c-20.11 0-36.4 16.29-36.4 36.4s16.29 36.4 36.4 36.4h71.51c6.48 0 9.81 2.55 10.57 2.74l0.26 202.97c-0.6 1.07-4.28 3.99-10.83 3.99h-9.16c-25.76 0-46.7 20.18-46.7 44.99v170.43c0 20.11 16.29 36.4 36.4 36.4s36.4-16.29 36.4-36.4v-144.2c37.88-7.11 66.43-37.57 66.43-73.96V493.67c-0.01-41.64-37.41-75.52-83.37-75.52zM254.34 418.15h-71.51c-45.97 0-83.36 33.88-83.36 75.53V697.9c0 36.4 28.55 66.86 66.43 73.96v144.18c0 20.11 16.29 36.4 36.4 36.4s36.4-16.29 36.4-36.4V745.62c0-24.81-20.95-44.99-46.7-44.99h-9.16c-6.48 0-10.17-2.78-10.57-2.74L172 494.93c0.6-1.07 4.28-3.99 10.83-3.99h71.51c20.11 0 36.4-16.29 36.4-36.4 0-20.1-16.29-36.39-36.4-36.39z" fill="#bfbfbf" p-id="5113"></path></svg>