<?xml version="1.0" standalone="no"?><!DOCTYPE svg PUBLIC "-//W3C//DTD SVG 1.1//EN" "http://www.w3.org/Graphics/SVG/1.1/DTD/svg11.dtd"><svg t="1607842219063" class="icon" viewBox="0 0 1024 1024" version="1.1" xmlns="http://www.w3.org/2000/svg" p-id="4194" xmlns:xlink="http://www.w3.org/1999/xlink" width="200" height="200"><defs><style type="text/css"></style></defs><path d="M511.981438 0A398.232179 398.232179 0 0 0 114.006018 397.97542c0 156.622585 191.541718 456.516321 289.366644 574.625156a140.44681 140.44681 0 0 0 217.217552 0C718.41514 854.491741 909.956859 554.598005 909.956859 397.97542A398.232179 398.232179 0 0 0 511.981438 0z m49.297601 924.330009a65.986892 65.986892 0 0 1-98.595201 0C352.020995 789.531882 191.033519 518.138322 191.033519 397.97542a320.94792 320.94792 0 0 1 641.895839 0c0 120.162901-160.987477 391.556462-271.650319 526.354589z" fill="#1296db" p-id="4195"></path><path d="M511.981438 205.406669a192.568752 192.568752 0 1 0 192.568752 192.568751A192.568752 192.568752 0 0 0 511.981438 205.406669z m0 308.110002a115.541251 115.541251 0 1 1 115.541252-115.541251 115.798009 115.798009 0 0 1-115.541252 115.541251z" fill="#1296db" p-id="4196"></path></svg>