<?xml version="1.0" standalone="no"?><!DOCTYPE svg PUBLIC "-//W3C//DTD SVG 1.1//EN" "http://www.w3.org/Graphics/SVG/1.1/DTD/svg11.dtd"><svg t="1608204395250" class="icon" viewBox="0 0 1024 1024" version="1.1" xmlns="http://www.w3.org/2000/svg" p-id="3893" xmlns:xlink="http://www.w3.org/1999/xlink" width="200" height="200"><defs><style type="text/css"></style></defs><path d="M553.097356 134.347626l294.107236 0 0 63.99644L553.097356 198.344066 553.097356 134.347626zM655.352266 261.128555l193.222271 0 0 63.99744-193.222271 0L655.352266 261.128555zM729.589296 398.317067l112.696492 0 0 63.99744L729.589296 462.314507 729.589296 398.317067zM187.291988 663.031479l193.222271 0 0 63.99744-193.222271 0L187.291988 663.031479zM189.851886 800.219991l112.696492 0 0 63.99744L189.851886 864.217431 189.851886 800.219991zM898.681533 0 130.716251 0C95.372665 0 66.719811 28.652854 66.719811 63.99744l0 895.958162c0 35.343586 28.652854 63.99644 63.99644 63.99644l299.389024-0.327987 0-63.99644-299.389024 0.327987L130.716251 63.99744l767.966281 0 0 422.380105 63.99644 0L962.678973 63.99744C962.676973 28.652854 934.020119 0 898.681533 0L898.681533 0z" p-id="3894" fill="#1296db"></path><path d="M363.186953 101.140954c-46.422143 0-84.404624 37.981481-84.404624 84.404624 0 29.541818 16.880325 59.083637 42.202312 71.74413 12.660494 8.440662 25.320987 12.660494 42.202312 12.660494 16.880325 0 29.541818-4.219831 42.202312-12.660494 25.320987-12.660494 42.202312-42.202312 42.202312-71.74413C447.591576 139.122435 409.609096 101.140954 363.186953 101.140954zM384.288108 223.527059c-8.440662 4.219831-12.660494 8.440662-25.320987 8.440662-8.440662 0-16.880325-4.220831-25.320987-8.440662-12.660494-8.440662-16.881325-21.101156-16.881325-33.76165 0-21.101156 21.101156-42.202312 42.202312-42.202312 25.320987 0 42.202312 21.101156 42.202312 42.202312C405.389264 202.425903 396.948602 215.086397 384.288108 223.527059z" p-id="3895" fill="#1296db"></path><path d="M401.169433 248.847046l-16.881325-25.320987c-8.440662 4.219831-12.660494 8.440662-25.320987 8.440662-8.440662 0-16.880325-4.220831-25.320987-8.440662l-12.660494 25.320987L219.700692 430.315787l291.193352 0L401.169433 248.847046zM363.186953 269.948202l84.403624 156.147754L283.00316 426.095956 363.186953 269.948202z" p-id="3896" fill="#1296db"></path><path d="M510.895044 426.095956 215.479861 426.095956c-25.320987 0-42.202312 16.881325-42.202312 42.202312l0 42.202312c0 25.320987 16.881325 42.202312 42.202312 42.202312l295.414183 0c25.321987 0 42.202312-16.881325 42.202312-42.202312l0-42.202312C553.096356 447.197112 531.9962 426.095956 510.895044 426.095956zM510.895044 510.50058 215.479861 510.50058l0-42.202312 295.414183 0L510.895044 510.50058 510.895044 510.50058z" p-id="3897" fill="#1296db"></path><path d="M687.056038 704.734691l0-74.917963c0-3.25619 0-13.029879-6.51238-22.803568-6.51238-9.773689-19.542258-9.773689-35.833447-3.25619l-3.25619 0L498.125355 760.110396c-3.25619 3.25619-16.286069 19.542258-16.286069 35.833447 0 19.542258 16.286069 35.833447 19.542258 35.833447l143.323547 162.870925c3.25619 3.25619 13.029879 13.029879 22.803568 13.029879s16.286069-6.51238 19.542258-13.029879c3.25619-6.51238 3.25619-13.029879 3.25619-22.803568l0-94.465341c42.345826 0 159.609616 6.51238 231.276509 133.554978 4.9918 11.022919 13.029879 13.029879 19.542258 13.029879l6.51238 0 4.874045-1.433543c9.773689-3.25619 11.412024-14.852526 11.412024-18.108716C960.673253 955.553458 941.130995 717.764569 687.056038 704.734691zM700.085917 844.802048c-16.286069 0-26.059758 0-26.059758 0l-16.286069 3.25619 0 110.75141-130.293668-149.841046c-3.25619-3.25619-9.773689-9.773689-9.773689-13.029879 0-3.25619 3.25619-9.773689 6.51238-13.029879l127.037479-136.811168 0 94.465341 16.286069 0c182.413183 0 237.788888 123.781289 254.074957 208.472941C846.665653 854.575737 745.687932 844.802048 700.085917 844.802048z" p-id="3898" fill="#1296db"></path></svg>