<?xml version="1.0" standalone="no"?><!DOCTYPE svg PUBLIC "-//W3C//DTD SVG 1.1//EN" "http://www.w3.org/Graphics/SVG/1.1/DTD/svg11.dtd"><svg t="1604110770638" class="icon" viewBox="0 0 1024 1024" version="1.1" xmlns="http://www.w3.org/2000/svg" p-id="3077" xmlns:xlink="http://www.w3.org/1999/xlink" width="200" height="200"><defs><style type="text/css"></style></defs><path d="M451.84 96a235.648 235.648 0 1 0 0 471.253333 235.648 235.648 0 0 0 0-471.253333z m0 64a171.648 171.648 0 1 1 0 343.253333 171.648 171.648 0 0 1 0-343.253333z" fill="#333333" p-id="3078"></path><path d="M451.84 544a398.506667 398.506667 0 0 1 398.592 398.506667 32 32 0 0 1-64 0 334.506667 334.506667 0 0 0-669.098667 0 32 32 0 1 1-64 0 398.506667 398.506667 0 0 1 398.506667-398.506667z" fill="#333333" p-id="3079"></path><path d="M736.981333 136.746667a194.901333 194.901333 0 0 1 0 389.802666 32 32 0 1 1 0-64 130.901333 130.901333 0 0 0 0-261.802666 32 32 0 1 1 0-64z" fill="#FE6058" p-id="3080"></path><path d="M696.234667 462.506667a317.098667 317.098667 0 0 1 317.098666 317.141333 32 32 0 0 1-64 0 253.098667 253.098667 0 0 0-253.098666-253.098667 32 32 0 0 1 0-64z" fill="#FE6058" p-id="3081"></path></svg>